<?xml version="1.0" encoding="UTF-8"?>
<svg xmlns="http://www.w3.org/2000/svg"
     viewBox="0 0 135.47 135.47">
  <path 
     d="m34.661 11.509a2.6458 2.6458 0 0 0-2.6464 2.6464v17.197h-17.197a2.6458 2.6458 0 0 0-2.6464 2.6464 2.6458 2.6458 0 0 0 2.6464 2.6464h17.197v17.197a2.6458 2.6458 0 0 0 2.6464 2.6464 2.6458 2.6458 0 0 0 2.6464-2.6464v-17.197h17.197a2.6458 2.6458 0 0 0 2.6464-2.6464 2.6458 2.6458 0 0 0-2.6464-2.6464h-17.197v-17.197a2.6458 2.6458 0 0 0-2.6464-2.6464zm46.303 19.844a2.6458 2.6458 0 0 0-2.6464 2.6464 2.6458 2.6458 0 0 0 2.6464 2.6464h39.687a2.6458 2.6458 0 0 0 2.6448-2.6464 2.6458 2.6458 0 0 0-2.6448-2.6464zm17.197 55.562a2.6458 2.6458 0 0 0-2.6464 2.6464 2.6458 2.6458 0 0 0 2.6464 2.6464h5.2911a2.6458 2.6458 0 0 0 2.6464-2.6464 2.6458 2.6458 0 0 0-2.6464-2.6464zm-75.686 0.20309a2.6458 2.6458 0 0 0-1.6071 0.55449 2.6458 2.6458 0 0 0-0.46664 3.713l10.911 14.051-10.911 14.051a2.6458 2.6458 0 0 0 0.46664 3.713 2.6458 2.6458 0 0 0 3.7109-0.4687l10.082-12.983 10.082 12.983a2.6458 2.6458 0 0 0 3.7109 0.4687 2.6458 2.6458 0 0 0 0.46664-3.713l-10.911-14.051 10.911-14.051a2.6458 2.6458 0 0 0-0.46664-3.713 2.6458 2.6458 0 0 0-3.7109 0.46871l-10.082 12.983-10.082-12.983a2.6458 2.6458 0 0 0-2.1037-1.0232zm58.488 15.672a2.6458 2.6458 0 0 0-2.6464 2.6464 2.6458 2.6458 0 0 0 2.6464 2.6464h39.687a2.6458 2.6458 0 0 0 2.6448-2.6464 2.6458 2.6458 0 0 0-2.6448-2.6464zm16.971 15.875a2.6458 2.6458 0 0 0-2.6469 2.6464 2.6458 2.6458 0 0 0 2.6469 2.6464h5.5175a2.6458 2.6458 0 0 0 2.6464-2.6464 2.6458 2.6458 0 0 0-2.6464-2.6464z"
     fill="currentColor"
     stroke="currentColor"
     stroke-width="1.2"
     stroke-linejoin="round"
     stroke-linecap="round"/>
</svg>
