<?xml version="1.0" encoding="UTF-8"?>
<svg xmlns="http://www.w3.org/2000/svg" 
     viewBox="0 0 135.47 135.47">
  <path 
     d="m65.26 6.711a5.2922 5.2922 0 0 0-5.4586 5.1201l-0.49041 15.194c-4.8973 1.0046-9.4956 2.8638-13.63 5.4131a5.2922 5.2922 0 0 0-1.3679-1.88l-11.935-10.468a5.2922 5.2922 0 0 0-7.4667 0.48938l-6.9789 7.9571a5.2922 5.2922 0 0 0 0.48938 7.4667l11.935 10.468a5.2922 5.2922 0 0 0 0.91777 0.64647c-1.9211 3.2517-3.4205 6.7779-4.4204 10.501l-14.341-0.46302a5.2922 5.2922 0 0 0-5.4606 5.118l-0.34106 10.578a5.2922 5.2922 0 0 0 5.1196 5.4591l14.867 0.47956c0.99376 3.9321 2.5428 7.6513 4.5573 11.068a5.2922 5.2922 0 0 0-0.56379 0.43925l-11.832 10.583a5.2922 5.2922 0 0 0-0.41651 7.4709l7.0559 7.8889a5.2922 5.2922 0 0 0 7.4714 0.41651l11.832-10.583a5.2922 5.2922 0 0 0 1.0955-1.371c3.5873 2.1823 7.5188 3.8471 11.688 4.8881l-0.43098 13.364a5.2922 5.2922 0 0 0 5.118 5.4591l10.578 0.34106a5.2922 5.2922 0 0 0 5.4591-5.1175l0.45992-14.267c3.7473-1.0192 7.2936-2.5446 10.56-4.4969a5.2922 5.2922 0 0 0 0.96687 1.1508l11.832 10.583a5.2922 5.2922 0 0 0 7.4714-0.41651l7.0559-7.8884a5.2922 5.2922 0 0 0-0.41651-7.4714l-11.832-10.583a5.2922 5.2922 0 0 0-0.25631-0.21497c2.2242-3.7316 3.8918-7.828 4.8844-12.171l13.919 0.44855a5.2922 5.2922 0 0 0 5.4586-5.1175l0.34158-10.579a5.2922 5.2922 0 0 0-5.118-5.4586l-15.249-0.49196c-0.92605-3.1487-2.2113-6.1487-3.807-8.9524l11.66-10.429a5.2922 5.2922 0 0 0 0.41496-7.4724l-7.0544-7.8874a5.2922 5.2922 0 0 0-7.4724-0.41806l-11.832 10.583a5.2922 5.2922 0 0 0-0.39532 0.39274c-2.9345-1.8173-6.1038-3.2864-9.4485-4.3486l0.50384-15.62a5.2922 5.2922 0 0 0-5.1175-5.4606zm2.496 40.627c11.815 0 21.166 9.3503 21.166 21.166 0 11.815-9.3508 21.166-21.166 21.166-11.815 0-21.168-9.3508-21.168-21.166 0-11.815 9.3523-21.166 21.168-21.166z"
     fill="currentColor"
     stroke="currentColor"
     stroke-width="1.2"
     stroke-linejoin="round"
     stroke-linecap="round"/>
</svg>
