<?xml version="1.0" encoding="UTF-8"?>
<svg xmlns="http://www.w3.org/2000/svg"
     viewBox="0 0 135.47 135.47"
     aria-hidden="true"
     focusable="false">
  <path 
    d="m67.865 9.5282a2.6458 2.6458 0 0 0-0.15865 0.00258 2.6458 2.6458 0 0 0-0.13849 0.00207 2.6458 2.6458 0 0 0-0.20722 0.024288 2.6458 2.6458 0 0 0-0.13332 0.019637 2.6458 2.6458 0 0 0-0.21601 0.05426 2.6458 2.6458 0 0 0-0.11576 0.033073 2.6458 2.6458 0 0 0-0.2036 0.080615 2.6458 2.6458 0 0 0-0.11989 0.051676 2.6458 2.6458 0 0 0-0.1881 0.1049 2.6458 2.6458 0 0 0-0.11059 0.066146 2.6458 2.6458 0 0 0-0.18448 0.13746 2.6458 2.6458 0 0 0-0.08733 0.06925 2.6458 2.6458 0 0 0-0.04444 0.03514 2.6458 2.6458 0 0 0-0.12041 0.12454 2.6458 2.6458 0 0 0-0.06511 0.06305l-50.252 55.541a2.6458 2.6458 0 0 0-0.01033 0.01137l-0.0088 0.0098a2.6458 2.6458 0 0 0-0.09664 0.12196 2.6458 2.6458 0 0 0-0.11576 0.14624 2.6458 2.6458 0 0 0-0.07131 0.11834 2.6458 2.6458 0 0 0-0.2434 0.49299 2.6458 2.6458 0 0 0-0.0026 0.0062 2.6458 2.6458 0 0 0-0.06511 0.22944 2.6458 2.6458 0 0 0-0.02997 0.10697 2.6458 2.6458 0 0 0-0.03049 0.20567 2.6458 2.6458 0 0 0-0.01964 0.14211 2.6458 2.6458 0 0 0-0.0036 0.22428 2.6458 2.6458 0 0 0-5.16e-4 0.12247 2.6458 2.6458 0 0 0 0.02532 0.21704 2.6458 2.6458 0 0 0 0.01757 0.13229 2.6458 2.6458 0 0 0 0.05478 0.21808 2.6458 2.6458 0 0 0 0.03204 0.11679 2.6458 2.6458 0 0 0 0.07958 0.20206 2.6458 2.6458 0 0 0 0.05323 0.12661 2.6458 2.6458 0 0 0 0.10025 0.17932 2.6458 2.6458 0 0 0 0.07286 0.12351 2.6458 2.6458 0 0 0 0.13126 0.1757 2.6458 2.6458 0 0 0 0.07752 0.09922 2.6458 2.6458 0 0 0 0.03462 0.04341l50.271 55.562a2.6458 2.6458 0 0 0 0.09405 0.0915 2.6458 2.6458 0 0 0 0.09147 0.0941 2.6458 2.6458 0 0 0 0.03256 0.0258 2.6458 2.6458 0 0 0 0.13591 0.10748 2.6458 2.6458 0 0 0 0.13953 0.10387 2.6458 2.6458 0 0 0 0.13798 0.0822 2.6458 2.6458 0 0 0 0.16692 0.093 2.6458 2.6458 0 0 0 0.13229 0.0574 2.6458 2.6458 0 0 0 0.18862 0.0744 2.6458 2.6458 0 0 0 0.12816 0.0367 2.6458 2.6458 0 0 0 0.21032 0.0527 2.6458 2.6458 0 0 0 0.11937 0.0176 2.6458 2.6458 0 0 0 0.22376 0.0264 2.6458 2.6458 0 0 0 0.12609 2e-3 2.6458 2.6458 0 0 0 0.21549-3e-3 2.6458 2.6458 0 0 0 0.13643-0.016 2.6458 2.6458 0 0 0 0.20722-0.0305 2.6458 2.6458 0 0 0 0.12609-0.0315 2.6458 2.6458 0 0 0 0.21187-0.0605 2.6458 2.6458 0 0 0 0.10594-0.0419 2.6458 2.6458 0 0 0 0.21291-0.092 2.6458 2.6458 0 0 0 0.10284-0.0568 2.6458 2.6458 0 0 0 0.1943-0.11679 2.6458 2.6458 0 0 0 0.0987-0.0729 2.6458 2.6458 0 0 0 0.1757-0.14005 2.6458 2.6458 0 0 0 0.0217-0.017 2.6458 2.6458 0 0 0 0.05994-0.0615 2.6458 2.6458 0 0 0 0.12764-0.12402l50.271-55.563a2.6458 2.6458 0 0 0 0.0326-0.04134 2.6458 2.6458 0 0 0 0.0816-0.10335 2.6458 2.6458 0 0 0 0.13126-0.17673 2.6458 2.6458 0 0 0 0.0625-0.1049 2.6458 2.6458 0 0 0 0.11007-0.19792 2.6458 2.6458 0 0 0 0.0481-0.11369 2.6458 2.6458 0 0 0 0.0832-0.21187 2.6458 2.6458 0 0 0 0.032-0.11679 2.6458 2.6458 0 0 0 0.0548-0.21808 2.6458 2.6458 0 0 0 0.0176-0.13229 2.6458 2.6458 0 0 0 0.0253-0.21704 2.6458 2.6458 0 0 0-5.2e-4 -0.12247 2.6458 2.6458 0 0 0-4e-3 -0.22428 2.6458 2.6458 0 0 0-0.016-0.11886 2.6458 2.6458 0 0 0-0.12919-0.56534 2.6458 2.6458 0 0 0-0.13746-0.31936 2.6458 2.6458 0 0 0-0.0729-0.12092 2.6458 2.6458 0 0 0-0.10697-0.17725 2.6458 2.6458 0 0 0-0.11576-0.14624 2.6458 2.6458 0 0 0-0.0966-0.12196l-9e-3 -0.0098a2.6458 2.6458 0 0 0-0.0103-0.01137l-50.237-55.526a2.6458 2.6458 0 0 0-0.0047-0.0052l-0.0098-0.01033a2.6458 2.6458 0 0 0-0.02791-0.02739 2.6458 2.6458 0 0 0-0.15968-0.1602 2.6458 2.6458 0 0 0-0.03049-0.02429 2.6458 2.6458 0 0 0-0.14469-0.11472 2.6458 2.6458 0 0 0-0.12712-0.094568 2.6458 2.6458 0 0 0-0.16536-0.098702 2.6458 2.6458 0 0 0-0.13384-0.074414 2.6458 2.6458 0 0 0-0.17983-0.077515 2.6458 2.6458 0 0 0-0.13694-0.054777 2.6458 2.6458 0 0 0-0.19379-0.055294 2.6458 2.6458 0 0 0-0.14108-0.03514 2.6458 2.6458 0 0 0-0.19689-0.028939 2.6458 2.6458 0 0 0-0.14418-0.017053 2.6458 2.6458 0 0 0-0.04858-0.00568zm-3.7114 10.545-26.533 41.007-14.253 4.0721zm7.1613 0.0021 40.783 45.076-14.251-4.0711zm-3.5817 0.31158 26.77 41.372-26.77 12.169-26.771-12.169zm-29.229 43.743 27.642 12.566v40.906l-44.12-48.763zm58.457 0 16.477 4.7072-44.119 48.763v-40.905z"
    fill="currentColor"
    stroke="currentColor"
    stroke-width="1.2"
    stroke-linejoin="round"
    stroke-linecap="round"/>
</svg>
