<?xml version="1.0" encoding="UTF-8"?>
<svg xmlns="http://www.w3.org/2000/svg"
     viewBox="0 0 135.47 135.47"
     aria-hidden="true"
     focusable="false">
  <path 
    d="m95.436 16.045a2.1197 1.8814 90 0 0-1.3353 0.50819l-31.094 30.121-43.281-16.535a1.8814 2.1197 0 0 0-0.71117-0.10867 1.8814 2.1197 0 0 0-0.90659 0.33087 1.8814 2.1197 0 0 0-0.85631 1.5592l-6.2917 66.216a1.8814 2.1197 0 0 0 1.3482 2.2604l55.255 17.992a1.8814 2.1197 0 0 0 2.3942-1.8122l1.1139-11.727-0.31619-0.66985 7.4818 14.209a2.1197 1.8814 90 0 0 2.8436 0.52495l42.784-41.443a2.1197 1.8814 90 0 0 0.43279-2.6037l-27.308-57.704a2.1197 1.8814 90 0 0-1.314-1.0856 2.1197 1.8814 90 0 0-0.23896-0.03297zm-0.97034 7.318 9.5189 41.436-18.488 16.102-14.063-22.566zm-4.8963 3.1692-1.7209 2.6123-18.448 28.008-14.439 2.9053zm8.3091 1.524 21.189 44.773-12.827-8.3684-5.5e-4 -5.4e-4zm-76.226 8.5463 29.831 21.233-2.2014 2.1328a2.1197 1.8814 90 0 0-0.39083 2.688l3.4859 6.6195-2.3004 16.187-23.964-5.6025zm5.3389 0.78878 32.702 12.492-6.4207 6.2194zm-6.9805 5.3187 3.9026 37.857-8.7595 13.256zm49.52 17 14.529 23.308-4.5884 29.402-26.048-49.468zm35.825 7.112 14.179 9.2518-37.816 36.632 4.5692-29.278zm-51.178 5.8739 13.693 26.004-1.2217 12.857-14.459-24.866zm-28.615 9.6346 24.756 5.7853 14.521 24.972-49.048-15.969z"
    fill="currentColor"
    stroke="currentColor"
    stroke-width="1.2"
    stroke-linejoin="round"
    stroke-linecap="round"/>
</svg>
