<?xml version="1.0" encoding="UTF-8"?>
<svg xmlns="http://www.w3.org/2000/svg"
     viewBox="0 0 135.47 135.47"
     aria-hidden="true"
     focusable="false">
  <path 
     d="m67.619 7.936a2.706 2.5335 0 0 0-0.18022 0.00148 2.706 2.5335 0 0 0-0.15063 0.00148 2.706 2.5335 0 0 0-0.21405 0.025731 2.706 2.5335 0 0 0-0.13741 0.018308 2.706 2.5335 0 0 0-0.21193 0.052451 2.706 2.5335 0 0 0-0.11152 0.027215l-0.05391 0.016825a2.706 2.5335 0 0 0-0.0053 0.00148l-32.413 10.114a2.706 2.5335 0 0 0-0.1205 0.04602 2.706 2.5335 0 0 0-0.18604 0.07125 2.706 2.5335 0 0 0-1e-3 4.95e-4 2.706 2.5335 0 0 0-0.12949 0.06581 2.706 2.5335 0 0 0-0.18551 0.09896 2.706 2.5335 0 0 0-0.11363 0.07818 2.706 2.5335 0 0 0-0.1723 0.12222 2.706 2.5335 0 0 0-0.1353 0.12321 2.706 2.5335 0 0 0-0.11257 0.10243l-24.354 25.336a2.706 2.5335 0 0 0-0.070824 0.08412 2.706 2.5335 0 0 0-0.00317 0.0034 2.706 2.5335 0 0 0-0.094603 0.11183 2.706 2.5335 0 0 0-0.1094 0.1534 2.706 2.5335 0 0 0-5.289e-4 9.57e-4 2.706 2.5335 0 0 0-0.075577 0.11727 2.706 2.5335 0 0 0-0.09249 0.17566 2.706 2.5335 0 0 0-0.00105 0.0016 2.706 2.5335 0 0 0-0.054436 0.11628 2.706 2.5335 0 0 0-0.068179 0.18803 2.706 2.5335 0 0 0-0.039111 0.1242 2.706 2.5335 0 0 0-0.042281 0.2004 2.706 2.5335 0 0 0-0.00105 0.0055 2.706 2.5335 0 0 0-0.019555 0.11084 2.706 2.5335 0 0 0-0.015327 0.21723 2.706 2.5335 0 0 0-0.00581 0.08362v43.069a2.706 2.5335 0 0 0 0.00423 0.06334 2.706 2.5335 0 0 0 0.016912 0.23702 2.706 2.5335 0 0 0 0.015326 0.09302 2.706 2.5335 0 0 0 0.048623 0.2291 2.706 2.5335 0 0 0 0.029069 0.09402 2.706 2.5335 0 0 0 0.079277 0.2197 2.706 2.5335 0 0 0 0.043337 0.09253 2.706 2.5335 0 0 0 0.1057 0.2004 2.706 2.5335 0 0 0 0.059722 0.09352 2.706 2.5335 0 0 0 0.13266 0.18605 2.706 2.5335 0 0 0 0.067654 0.08016 2.706 2.5335 0 0 0 0.090901 0.10738l24.354 25.333a2.706 2.5335 0 0 0 0.12737 0.11579 2.706 2.5335 0 0 0 0.12103 0.11035 2.706 2.5335 0 0 0 0.15485 0.10985 2.706 2.5335 0 0 0 0.13371 0.0921 2.706 2.5335 0 0 0 0.17124 0.0916 2.706 2.5335 0 0 0 0.14217 0.0727 2.706 2.5335 0 0 0 0.18868 0.0717 2.706 2.5335 0 0 0 0.11733 0.045l32.472 10.134a2.706 2.5335 0 0 0 0.12896 0.0317 2.706 2.5335 0 0 0 0.19978 0.0484 2.706 2.5335 0 0 0 0.14323 0.0187 2.706 2.5335 0 0 0 0.20612 0.0242 2.706 2.5335 0 0 0 0.1538 9.5e-4 2.706 2.5335 0 0 0 0.20295-9.5e-4 2.706 2.5335 0 0 0 0.12737-0.0148 2.706 2.5335 0 0 0 0.2262-0.0292 2.706 2.5335 0 0 0 0.1094-0.0268 2.706 2.5335 0 0 0 0.21405-0.0525l32.472-10.134a2.706 2.5335 0 0 0 0.21089-0.0806 2.706 2.5335 0 0 0 0.10464-0.0395 2.706 2.5335 0 0 0 0.18286-0.0964 2.706 2.5335 0 0 0 0.12527-0.0663 2.706 2.5335 0 0 0 0.1522-0.10638 2.706 2.5335 0 0 0 0.13002-0.0921 2.706 2.5335 0 0 0 0.14428-0.13211 2.706 2.5335 0 0 0 0.10464-0.0955l5e-3 -6e-3a2.706 2.5335 0 0 0 5.3e-4 -5e-4l24.348-25.327a2.706 2.5335 0 0 0 0.0756-0.08907 2.706 2.5335 0 0 0 0.0914-0.10787 2.706 2.5335 0 0 0 0.11416-0.16032 2.706 2.5335 0 0 0 0.0734-0.11381 2.706 2.5335 0 0 0 0.0893-0.16972 2.706 2.5335 0 0 0 0.0612-0.12915 2.706 2.5335 0 0 0 0.0646-0.17913 2.706 2.5335 0 0 0 0.0407-0.12717 2.706 2.5335 0 0 0 0.0429-0.20288 2.706 2.5335 0 0 0 0.0207-0.11628 2.706 2.5335 0 0 0 0.0148-0.21327 2.706 2.5335 0 0 0 6e-3 -0.08758v-43.069a2.706 2.5335 0 0 0-7e-3 -0.1054 2.706 2.5335 0 0 0-0.0105-0.14894 2.706 2.5335 0 0 0-0.0275-0.17863 2.706 2.5335 0 0 0-0.0291-0.143 2.706 2.5335 0 0 0-0.0544-0.18012 2.706 2.5335 0 0 0-0.0449-0.12866 2.706 2.5335 0 0 0-0.0819-0.17814 2.706 2.5335 0 0 0-0.0619-0.12123 2.706 2.5335 0 0 0-0.11153-0.17517 2.706 2.5335 0 0 0-0.0671-0.09798 2.706 2.5335 0 0 0-0.14535-0.17319 2.706 2.5335 0 0 0-0.0539-0.06383l-24.354-25.336a2.706 2.5335 0 0 0-0.11468-0.10441 2.706 2.5335 0 0 0-0.12844-0.11678 2.706 2.5335 0 0 0-0.13213-0.09501 2.706 2.5335 0 0 0-0.15009-0.1054 2.706 2.5335 0 0 0-0.14006-0.07522 2.706 2.5335 0 0 0-0.17335-0.09104 2.706 2.5335 0 0 0-0.13636-0.05195 2.706 2.5335 0 0 0-0.1797-0.06878l-32.471-10.132a2.706 2.5335 0 0 0-0.18551-0.045523 2.706 2.5335 0 0 0-0.14059-0.034638 2.706 2.5335 0 0 0-0.21035-0.027215 2.706 2.5335 0 0 0-0.14481-0.016329 2.706 2.5335 0 0 0-0.02484-0.00297zm-1.7726 5.7063v16.331l-31.143 21.868-20.076-6.2654 21.905-22.786zm3.2456 0 29.311 9.1463 21.906 22.787-20.075 6.2654-31.142-21.868zm-1.6236 18.991 30.648 21.52-10.288 40.931h-38.087l-12.87-40.967zm54.121 15.747v39.649l-21.919 22.803-8.8272-14.462 10.471-41.663zm-108.24 4.96e-4 20.33 6.3446 13.066 41.597-11.25 14.748-22.146-23.039zm36.013 49.743h38.812l8.8272 14.461-29.533 9.2176-29.215-9.1186z"
    fill="currentColor"
    stroke="currentColor"
    stroke-width="1.2"
    stroke-linejoin="round"
    stroke-linecap="round"/>
</svg>
