<?xml version="1.0" encoding="UTF-8"?>
<svg xmlns="http://www.w3.org/2000/svg"
     viewBox="0 0 135.47 135.47"
     aria-hidden="true"
     focusable="false">
  <path
    d="m67.658 9.5254a2.6458 2.6458 0 0 0-0.12764 0.011369 2.6458 2.6458 0 0 0-0.16071 0.013436 2.6458 2.6458 0 0 0-0.17518 0.031523 2.6458 2.6458 0 0 0-0.16485 0.036174 2.6458 2.6458 0 0 0-0.17157 0.05426 2.6458 2.6458 0 0 0-0.15555 0.056844 2.6458 2.6458 0 0 0-0.15761 0.07338 2.6458 2.6458 0 0 0-0.154 0.079582 2.6458 2.6458 0 0 0-0.14883 0.095085 2.6458 2.6458 0 0 0-0.13798 0.096635 2.6458 2.6458 0 0 0-0.04548 0.03204l-39.688 31.75a2.6458 2.6458 0 0 0-0.12247 0.11162 2.6458 2.6458 0 0 0-0.11007 0.10077 2.6458 2.6458 0 0 0-0.13539 0.15451 2.6458 2.6458 0 0 0-0.08578 0.10128 2.6458 2.6458 0 0 0-0.12092 0.18087 2.6458 2.6458 0 0 0-0.07028 0.10904 2.6458 2.6458 0 0 0-0.08268 0.16743 2.6458 2.6458 0 0 0-0.06873 0.14418 2.6458 2.6458 0 0 0-0.05943 0.17518 2.6458 2.6458 0 0 0-0.04858 0.14831 2.6458 2.6458 0 0 0-0.03772 0.18914 2.6458 2.6458 0 0 0-0.02842 0.14986 2.6458 2.6458 0 0 0-0.0124 0.19275 2.6458 2.6458 0 0 0-0.0093 0.13953v42.334a2.6458 2.6458 0 0 0 0.18138 0.95343 2.6458 2.6458 0 0 0 0.75034 2.8024l39.615 35.239a2.6458 2.6458 0 0 0 0.0026 2e-3l0.02532 0.0227a2.6458 2.6458 0 0 0 0.11214 0.0873 2.6458 2.6458 0 0 0 0.15193 0.11833 2.6458 2.6458 0 0 0 0.14159 0.0853 2.6458 2.6458 0 0 0 0.15658 0.092 2.6458 2.6458 0 0 0 0.16743 0.0718 2.6458 2.6458 0 0 0 0.154 0.0651 2.6458 2.6458 0 0 0 0.19017 0.0537 2.6458 2.6458 0 0 0 0.14573 0.0403 2.6458 2.6458 0 0 0 0.17777 0.0248 2.6458 2.6458 0 0 0 0.51831 0.0264 2.6458 2.6458 0 0 0 0.3452-0.0439 2.6458 2.6458 0 0 0 0.14418-0.0377 2.6458 2.6458 0 0 0 0.19275-0.0512 2.6458 2.6458 0 0 0 0.15245-0.0615 2.6458 2.6458 0 0 0 0.17156-0.0713 2.6458 2.6458 0 0 0 0.13488-0.0765 2.6458 2.6458 0 0 0 0.16846-0.0982 2.6458 2.6458 0 0 0 0.12196-0.092 2.6458 2.6458 0 0 0 0.15555-0.12041 2.6458 2.6458 0 0 0 0.01292-0.0103l39.732-35.263a2.6458 2.6458 0 0 0 0.70642-2.9332 2.6458 2.6458 0 0 0 0.13746-0.82476v-42.334a2.6458 2.6458 0 0 0-9e-3 -0.13798 2.6458 2.6458 0 0 0-0.0124-0.19534 2.6458 2.6458 0 0 0-0.0274-0.14418 2.6458 2.6458 0 0 0-0.0388-0.19379 2.6458 2.6458 0 0 0-0.0429-0.13229 2.6458 2.6458 0 0 0-0.0667-0.19534 2.6458 2.6458 0 0 0-0.0574-0.12041 2.6458 2.6458 0 0 0-0.092-0.18707 2.6458 2.6458 0 0 0-0.078-0.12092 2.6458 2.6458 0 0 0-0.11162-0.16691 2.6458 2.6458 0 0 0-0.0956-0.11266 2.6458 2.6458 0 0 0-0.12764-0.14521 2.6458 2.6458 0 0 0-0.11266-0.10284 2.6458 2.6458 0 0 0-0.11989-0.10955l-39.665-31.732a2.6458 2.6458 0 0 0-0.01137-0.0088l-0.01137-0.0093a2.6458 2.6458 0 0 0-0.03772-0.02636 2.6458 2.6458 0 0 0-0.22221-0.15555 2.6458 2.6458 0 0 0-0.09973-0.055811 2.6458 2.6458 0 0 0-0.19017-0.098702 2.6458 2.6458 0 0 0-0.1111-0.046509 2.6458 2.6458 0 0 0-0.19844-0.07183 2.6458 2.6458 0 0 0-0.11576-0.03359 2.6458 2.6458 0 0 0-0.21084-0.046509 2.6458 2.6458 0 0 0-0.108-0.018604 2.6458 2.6458 0 0 0-0.06718-0.011369 2.6458 2.6458 0 0 0-0.13488-0.0062 2.6458 2.6458 0 0 0-0.15141-0.00672 2.6458 2.6458 0 0 0-0.05995-0.00258zm0.05529 8.7385 34.429 66.402h-68.861zm-3.7145 0.26562-33.329 64.274v-37.611zm7.4275 1e-3 33.328 26.662v37.615zm-39.591 69.312h71.839l-35.96 31.914z"
    fill="currentColor"
    stroke="currentColor"
    stroke-width="1.2"
    stroke-linejoin="round"
    stroke-linecap="round"/>
</svg>
