<?xml version="1.0" encoding="UTF-8"?>
<svg xmlns="http://www.w3.org/2000/svg"
     viewBox="0 0 135.47 135.47"
     aria-hidden="true"
     focusable="false">
  <path 
    d="m67.309 5.1636a3.1603 2.9104 0 0 0-0.0469 0.00517 3.1603 2.9104 0 0 0-0.20369 0.022165 3.1603 2.9104 0 0 0-0.20801 0.027852 3.1603 2.9104 0 0 0-0.04444 0.00627 3.1603 2.9104 0 0 0-0.14382 0.037521 3.1603 2.9104 0 0 0-0.2111 0.055143 3.1603 2.9104 0 0 0-0.18024 0.065373 3.1603 2.9104 0 0 0-0.20122 0.080146 3.1603 2.9104 0 0 0-0.16604 0.085272 3.1603 2.9104 0 0 0-0.15184 0.07788l-53.725 32.014a3.1603 2.9104 0 0 0-0.10926 0.07503 3.1603 2.9104 0 0 0-0.15555 0.10686 3.1603 2.9104 0 0 0-0.16048 0.1296 3.1603 2.9104 0 0 0-0.14506 0.12904 3.1603 2.9104 0 0 0-0.1395 0.14723 3.1603 2.9104 0 0 0-0.12345 0.14325 3.1603 2.9104 0 0 0-0.11666 0.1603 3.1603 2.9104 0 0 0-0.10863 0.16826 3.1603 2.9104 0 0 0-0.08457 0.15803 3.1603 2.9104 0 0 0-0.08826 0.18872 3.1603 2.9104 0 0 0-0.06111 0.16598 3.1603 2.9104 0 0 0-0.06049 0.19668 3.1603 2.9104 0 0 0-0.03704 0.17053 3.1603 2.9104 0 0 0-0.03272 0.20634 3.1603 2.9104 0 0 0-0.01235 0.17394 3.1603 2.9104 0 0 0-0.0086 0.12506v55.297a3.1603 2.9104 0 0 0 0.0086 0.12506 3.1603 2.9104 0 0 0 0.01235 0.17394 3.1603 2.9104 0 0 0 0.03272 0.20634 3.1603 2.9104 0 0 0 0.03704 0.17053 3.1603 2.9104 0 0 0 0.06049 0.19668 3.1603 2.9104 0 0 0 0.06111 0.16598 3.1603 2.9104 0 0 0 0.08826 0.18872 3.1603 2.9104 0 0 0 0.08457 0.15803 3.1603 2.9104 0 0 0 0.10863 0.16826 3.1603 2.9104 0 0 0 0.11666 0.1603 3.1603 2.9104 0 0 0 0.12345 0.14325 3.1603 2.9104 0 0 0 0.1395 0.14723 3.1603 2.9104 0 0 0 0.14506 0.12904 3.1603 2.9104 0 0 0 0.16048 0.1296 3.1603 2.9104 0 0 0 0.15555 0.10686 3.1603 2.9104 0 0 0 0.10926 0.07503l53.725 32.014a3.1603 2.9104 0 0 0 0.14505 0.0745 3.1603 2.9104 0 0 0 0.17406 0.0892 3.1603 2.9104 0 0 0 0.20554 0.0818 3.1603 2.9104 0 0 0 0.17283 0.0631 3.1603 2.9104 0 0 0 0.22344 0.0585 3.1603 2.9104 0 0 0 0.17592 0.0409 3.1603 2.9104 0 0 0 0.23024 0.0307 3.1603 2.9104 0 0 0 0.17962 0.0194 3.1603 2.9104 0 0 0 0.24752 3e-3 3.1603 2.9104 0 0 0 0.15802-2e-3 3.1603 2.9104 0 0 0 0.2611-0.0284 3.1603 2.9104 0 0 0 0.14938-0.0199 3.1603 2.9104 0 0 0 0.25554-0.0597 3.1603 2.9104 0 0 0 0.14505-0.0381 3.1603 2.9104 0 0 0 0.23764-0.087 3.1603 2.9104 0 0 0 0.14567-0.058 3.1603 2.9104 0 0 0 0.23085-0.1188 3.1603 2.9104 0 0 0 0.09629-0.0495l0.08518-0.0506a3.1603 2.9104 0 0 0 0.0011-1e-3l53.641-31.962a3.1603 2.9104 0 0 0 0.12962-0.08867 3.1603 2.9104 0 0 0 0.11789-0.08072 3.1603 2.9104 0 0 0 0.20431-0.16542 3.1603 2.9104 0 0 0 0.0962-0.08527 3.1603 2.9104 0 0 0 0.18333-0.1927 3.1603 2.9104 0 0 0 0.0852-0.09777 3.1603 2.9104 0 0 0 0.14751-0.2035 3.1603 2.9104 0 0 0 0.0766-0.11596 3.1603 2.9104 0 0 0 0.11729-0.21999 3.1603 2.9104 0 0 0 0.0582-0.12051 3.1603 2.9104 0 0 0 0.0864-0.2342 3.1603 2.9104 0 0 0 0.0402-0.12562 3.1603 2.9104 0 0 0 0.0544-0.25296 3.1603 2.9104 0 0 0 0.0205-0.11312 3.1603 2.9104 0 0 0 0.0184-0.26489 3.1603 2.9104 0 0 0 5e-3 -0.08356v-55.297a3.1603 2.9104 0 0 0-5e-3 -0.08356 3.1603 2.9104 0 0 0-0.0184-0.26489 3.1603 2.9104 0 0 0-0.0205-0.11312 3.1603 2.9104 0 0 0-0.0544-0.25296 3.1603 2.9104 0 0 0-0.0402-0.12562 3.1603 2.9104 0 0 0-0.0864-0.2342 3.1603 2.9104 0 0 0-0.0582-0.12051 3.1603 2.9104 0 0 0-0.11729-0.21999 3.1603 2.9104 0 0 0-0.0766-0.11596 3.1603 2.9104 0 0 0-0.14751-0.2035 3.1603 2.9104 0 0 0-0.0852-0.09777 3.1603 2.9104 0 0 0-0.18333-0.1927 3.1603 2.9104 0 0 0-0.0962-0.08527 3.1603 2.9104 0 0 0-0.20431-0.16542 3.1603 2.9104 0 0 0-0.11789-0.08072 3.1603 2.9104 0 0 0-0.12962-0.08868l-53.727-32.014a3.1603 2.9104 0 0 0-0.1253-0.06424 3.1603 2.9104 0 0 0-0.20616-0.10573 3.1603 2.9104 0 0 0-0.17098-0.067078 3.1603 2.9104 0 0 0-0.20369-0.07447 3.1603 2.9104 0 0 0-0.19382-0.050028 3.1603 2.9104 0 0 0-0.15431-0.039787 3.1603 2.9104 0 0 0-0.04444-0.00627 3.1603 2.9104 0 0 0-0.20863-0.028424 3.1603 2.9104 0 0 0-0.20246-0.021604 3.1603 2.9104 0 0 0-0.20678-0.00286 3.1603 2.9104 0 0 0-0.15987-0.00231zm-1.7345 7.5028v14.393l-37.955 8.2236zm3.7905 0.0011 37.955 22.616-37.955-8.2236zm-5.512 18.352-27.944 48.895-19.005-35.002v-3.2441l1.2512-0.7458zm7.2336 5.69e-4 45.698 9.9028 1.2499 0.74466v3.2458l-19.006 35.003zm-3.6152 1.1738 28.461 49.801h-56.925zm-50.566 20.528 16.464 30.322-16.464 8.6653zm101.13 0v38.987l-16.464-8.6642zm-78.485 32.764h55.84l-27.92 35.997zm60.07 0.55252 16.694 8.7864-43.707 26.044zm-64.301 0.0011 27.016 34.831-43.709-26.046z"
    fill="currentColor"
    stroke="currentColor"
    stroke-width="1.2"
    stroke-linejoin="round"
    stroke-linecap="round"/>
</svg>
