<?xml version="1.0" encoding="UTF-8"?>
<svg xmlns="http://www.w3.org/2000/svg"
     viewBox="0 0 135.47 135.47"
     aria-hidden="true"
     focusable="false">
  <path
    d="m67.883 9.7644a3.175 3.175 0 0 0-0.16681 0.00312 3.175 3.175 0 0 0-0.18108 0.00312 3.175 3.175 0 0 0-0.23502 0.026664 3.175 3.175 0 0 0-0.17735 0.026664 3.175 3.175 0 0 0-0.2375 0.059532 3.175 3.175 0 0 0-0.15689 0.044652 3.175 3.175 0 0 0-0.07069 0.02046 3.175 3.175 0 0 0-0.19286 0.0831 3.175 3.175 0 0 0-0.08124 0.03163l-53.937 25.383a3.175 3.175 0 0 0-0.0055 0.0018l-0.03473 0.01674a3.175 3.175 0 0 0-0.11038 0.06077 3.175 3.175 0 0 0-0.23378 0.1296 3.175 3.175 0 0 0-0.1265 0.08992 3.175 3.175 0 0 0-0.20402 0.15069 3.175 3.175 0 0 0-0.11906 0.10976 3.175 3.175 0 0 0-0.17735 0.17115 3.175 3.175 0 0 0-0.10728 0.12712 3.175 3.175 0 0 0-0.15379 0.19286 3.175 3.175 0 0 0-0.08434 0.13085 3.175 3.175 0 0 0-0.13084 0.21766 3.175 3.175 0 0 0-0.06946 0.14635 3.175 3.175 0 0 0-0.09859 0.22634 3.175 3.175 0 0 0-0.05147 0.15627 3.175 3.175 0 0 0-0.06821 0.23626 3.175 3.175 0 0 0-0.03038 0.15813 3.175 3.175 0 0 0-0.03721 0.24619 3.175 3.175 0 0 0-0.01116 0.16929 3.175 3.175 0 0 0-0.0094 0.15193v57.15a3.175 3.175 0 0 0 0.11162 0.8322 3.175 3.175 0 0 0 1.7115 3.6841l53.977 25.399a3.175 3.175 0 0 0 0.13643 0.0546 3.175 3.175 0 0 0 0.14573 0.0583 3.175 3.175 0 0 0 0.22324 0.0682 3.175 3.175 0 0 0 0.14945 0.0409 3.175 3.175 0 0 0 0.25177 0.0428 3.175 3.175 0 0 0 0.13332 0.0198 3.175 3.175 0 0 0 0.82414-0.0248 3.175 3.175 0 0 0 0.13146-0.031 3.175 3.175 0 0 0 0.29518-0.0695 3.175 3.175 0 0 0 0.0012-6.2e-4 3.175 3.175 0 0 0 0.11844-0.0458 3.175 3.175 0 0 0 0.2896-0.1122 3.175 3.175 0 0 0 0.0025-6.2e-4l53.974-25.399a3.175 3.175 0 0 0 1.7122-3.6829 3.175 3.175 0 0 0 0.1116-0.83344v-57.15a3.175 3.175 0 0 0-0.01-0.15007 3.175 3.175 0 0 0-0.0108-0.17673 3.175 3.175 0 0 0-0.0354-0.23192 3.175 3.175 0 0 0-0.0323-0.16805 3.175 3.175 0 0 0-0.0658-0.22882 3.175 3.175 0 0 0-0.0552-0.16681 3.175 3.175 0 0 0-0.0949-0.21766 3.175 3.175 0 0 0-0.0726-0.15131 3.175 3.175 0 0 0-0.12404-0.2065 3.175 3.175 0 0 0-0.0936-0.14511 3.175 3.175 0 0 0-0.13952-0.17549 3.175 3.175 0 0 0-0.12092-0.14449 3.175 3.175 0 0 0-0.16124-0.15441 3.175 3.175 0 0 0-0.13518-0.12464 3.175 3.175 0 0 0-0.19596-0.14511 3.175 3.175 0 0 0-0.13208-0.09364 3.175 3.175 0 0 0-0.23378-0.1296 3.175 3.175 0 0 0-0.1104-0.06077l-0.0378-0.01799a3.175 3.175 0 0 0-2e-3 -6.19e-4l-53.934-25.383a3.175 3.175 0 0 0-0.06635-0.02604 3.175 3.175 0 0 0-0.21022-0.08868 3.175 3.175 0 0 0-0.0583-0.01674 3.175 3.175 0 0 0-0.191-0.054576 3.175 3.175 0 0 0-0.21084-0.052704 3.175 3.175 0 0 0-0.20154-0.02976 3.175 3.175 0 0 0-0.20278-0.023568 3.175 3.175 0 0 0-0.06202-0.00684zm-0.14821 6.6818 48.31 22.733-48.31 25.577-48.311-25.576zm-50.8 25.727 48.896 25.886v50.066l-48.896-23.012zm101.6 0v52.94l-48.896 23.012v-50.065z"
    fill="currentColor"
    stroke="currentColor"
    stroke-width="1.2"
    stroke-linejoin="round"
    stroke-linecap="round"/>
</svg>
